<?xml version="1.0" encoding="UTF-8" ?>
<!DOCTYPE svg PUBLIC "-//W3C//DTD SVG 1.1//EN" "http://www.w3.org/Graphics/SVG/1.1/DTD/svg11.dtd">
<svg width="139pt" height="26pt" viewBox="0 0 139 26" version="1.1" xmlns="http://www.w3.org/2000/svg">
<path fill="#ffffff" d=" M 0.00 0.00 L 139.00 0.00 L 139.00 18.92 C 136.75 19.02 134.50 19.08 132.26 19.13 C 132.37 13.40 132.30 7.67 132.32 1.95 C 130.88 1.94 129.44 1.93 128.00 1.93 C 128.00 8.38 128.00 14.84 128.00 21.29 C 131.67 21.30 135.33 21.29 139.00 21.27 L 139.00 26.00 L 27.40 26.00 C 29.88 25.42 32.27 24.49 34.49 23.25 C 30.45 23.85 26.27 24.89 22.22 23.74 C 19.09 22.84 16.64 20.56 14.54 18.17 C 12.28 18.11 10.02 18.14 7.77 18.30 C 11.49 22.08 16.12 25.02 21.40 26.00 L 0.00 26.00 L 0.00 11.84 C 2.17 11.94 4.35 11.98 6.52 11.95 C 9.56 8.14 14.18 5.20 19.25 5.97 C 15.88 7.82 13.08 11.69 14.45 15.66 C 15.67 20.27 20.79 21.86 25.01 22.25 C 32.12 23.29 39.20 19.90 43.80 14.58 C 41.59 14.56 39.39 14.56 37.18 14.63 C 34.36 18.15 30.30 20.25 25.92 21.12 C 27.64 19.02 30.14 17.04 30.03 14.06 C 30.58 8.68 25.09 5.25 20.43 4.47 C 12.88 2.67 5.24 6.17 0.00 11.51 L 0.00 0.00 Z" />
<path fill="#ffc10f" d=" M 8.79 3.59 C 13.09 0.19 18.83 0.75 23.96 0.95 C 28.44 2.03 32.70 4.57 35.50 8.28 C 33.37 8.35 31.24 8.35 29.12 8.25 C 26.99 5.79 24.41 3.54 21.19 2.69 C 17.08 1.44 12.82 2.66 8.79 3.59 Z" />
<path fill="#ffc10f" d=" M 110.51 1.66 C 113.69 0.94 117.21 1.18 120.10 2.79 C 125.94 6.28 126.15 15.89 120.52 19.68 C 115.11 23.45 105.76 22.55 103.07 15.88 C 100.37 10.15 104.18 2.63 110.51 1.66 Z" />
<path fill="#005f9d" d=" M 45.52 1.85 C 50.69 2.39 56.71 0.40 61.20 3.74 C 64.67 6.27 64.37 11.03 63.76 14.79 C 62.51 18.02 59.52 20.66 56.02 21.08 C 52.54 21.49 49.02 21.23 45.52 21.29 C 45.52 14.81 45.52 8.33 45.52 1.85 Z" />
<path fill="#005f9d" d=" M 68.15 1.95 C 69.76 1.93 71.37 1.93 72.99 1.90 C 72.93 8.40 72.94 14.90 72.98 21.41 C 71.36 21.38 69.75 21.37 68.14 21.36 C 68.22 14.89 68.19 8.42 68.15 1.95 Z" />
<path fill="#ffc10f" d=" M 79.09 1.89 C 79.78 1.92 81.16 1.96 81.85 1.99 C 84.10 6.42 86.12 10.98 88.63 15.27 C 90.63 10.76 93.13 6.49 95.18 2.00 C 95.87 1.97 97.24 1.91 97.93 1.88 C 98.33 8.40 99.44 14.85 100.25 21.33 C 98.68 21.37 97.11 21.41 95.54 21.46 C 94.91 17.48 95.23 13.41 94.37 9.46 C 90.81 12.75 90.36 18.22 87.06 21.80 C 84.52 17.54 82.91 12.77 80.12 8.66 C 80.19 12.93 79.00 17.07 78.94 21.33 C 78.31 21.36 77.06 21.42 76.44 21.44 C 77.30 14.93 78.77 8.47 79.09 1.89 Z" />
<path fill="#ffc10f" d=" M 128.00 1.93 C 129.44 1.93 130.88 1.94 132.32 1.95 C 132.30 7.67 132.37 13.40 132.26 19.13 C 134.50 19.08 136.75 19.02 139.00 18.92 L 139.00 21.27 C 135.33 21.29 131.67 21.30 128.00 21.29 C 128.00 14.84 128.00 8.38 128.00 1.93 Z" />
<path fill="#ffffff" d=" M 111.34 3.44 C 114.95 1.71 119.04 4.79 119.49 8.49 C 120.46 12.75 119.12 19.22 114.07 20.03 C 109.96 20.83 107.15 16.68 107.12 13.02 C 106.98 9.50 107.76 5.04 111.34 3.44 Z" />
<path fill="#005f9d" d=" M 0.00 11.51 C 5.24 6.17 12.88 2.67 20.43 4.47 C 25.09 5.25 30.58 8.68 30.03 14.06 C 30.14 17.04 27.64 19.02 25.92 21.12 C 30.30 20.25 34.36 18.15 37.18 14.63 C 39.39 14.56 41.59 14.56 43.80 14.58 C 39.20 19.90 32.12 23.29 25.01 22.25 C 20.79 21.86 15.67 20.27 14.45 15.66 C 13.08 11.69 15.88 7.82 19.25 5.97 C 14.18 5.20 9.56 8.14 6.52 11.95 C 4.35 11.98 2.17 11.94 0.00 11.84 L 0.00 11.51 Z" />
<path fill="#ffffff" d=" M 49.94 3.44 C 52.94 3.50 56.90 3.27 58.51 6.38 C 59.65 9.59 59.62 13.33 58.36 16.51 C 56.85 19.58 53.05 19.69 50.08 19.79 C 49.80 14.34 50.00 8.89 49.94 3.44 Z" />
<path fill="#ffc10f" d=" M 7.77 18.30 C 10.02 18.14 12.28 18.11 14.54 18.17 C 16.64 20.56 19.09 22.84 22.22 23.74 C 26.27 24.89 30.45 23.85 34.49 23.25 C 32.27 24.49 29.88 25.42 27.40 26.00 L 21.40 26.00 C 16.12 25.02 11.49 22.08 7.77 18.30 Z" />
</svg>
